# xmcd
#
# Track frame offsets: 
#        182
#        10070
#        19632
#        31507
#        41762
#        54802
#        64075
#        75387
#        85750
#        96127
#        106947
#        119942
#        127852
#        136515
#        147447
#        157722
#        168905
#        179117
#
# Disc length: 2535 seconds
#
# Revision: 1
# Processed by: cddbd v1.5.2PL0 Copyright (c) Steve Scherf et al.
# Submitted via: ExactAudioCopy v0.95b4
#
DISCID=d409e512
DTITLE=Sons Of The Pioneers - Cool Water
DYEAR=1995
DGENRE=Country
TTITLE0=Cool Water
TTITLE1=Whoopie-Ti-Yi-Yo
TTITLE2=Wind
TTITLE3=Cowboy's Dream
TTITLE4=The Last Round-Up
TTITLE5=Ridin' Home
TTITLE6=Twilight On The Trail
TTITLE7=Red River Valley
TTITLE8=Wagon Wheels
TTITLE9=Riders In The Sky
TTITLE10=Blue Prarie
TTITLE11=Way Out There
TTITLE12=Empty Saddles
TTITLE13=Teardrops In My Heart
TTITLE14=Blue Shadows On The Trail
TTITLE15=Ridin' Down the Canyon 
TTITLE16=Timber Trail
TTITLE17=Tumbling Tumbleweeds
EXTD=
EXTT0=
EXTT1=
EXTT2=
EXTT3=
EXTT4=
EXTT5=
EXTT6=
EXTT7=
EXTT8=
EXTT9=
EXTT10=
EXTT11=
EXTT12=
EXTT13=
EXTT14=
EXTT15=
EXTT16=
EXTT17=
PLAYORDER=
